<?xml version="1.0" standalone="no"?><svg xmlns="http://www.w3.org/2000/svg" viewBox="0 0 1440 320"><path fill="#2E8DB8" fill-opacity="1" d="M0,160L26.7,149.3C53.3,139,107,117,160,138.7C213.3,160,267,224,320,213.3C373.3,203,427,117,480,106.7C533.3,96,587,160,640,176C693.3,192,747,160,800,170.7C853.3,181,907,235,960,245.3C1013.3,256,1067,224,1120,176C1173.3,128,1227,64,1280,37.3C1333.3,11,1387,21,1413,26.7L1440,32L1440,320L1413.3,320C1386.7,320,1333,320,1280,320C1226.7,320,1173,320,1120,320C1066.7,320,1013,320,960,320C906.7,320,853,320,800,320C746.7,320,693,320,640,320C586.7,320,533,320,480,320C426.7,320,373,320,320,320C266.7,320,213,320,160,320C106.7,320,53,320,27,320L0,320Z"></path></svg>